<svg xmlns="http://www.w3.org/2000/svg" style="display: none;"><symbol id="sql-server" viewBox="0 0 24 24"><title>sql-server</title><path d="m15 18.5c0-1.378-1.121-2.5-2.5-2.5h-1c-1.379 0-2.5 1.122-2.5 2.5v3c0 1.378 1.121 2.5 2.5 2.5h1c.336 0 .656-.069.949-.189.168.114.355.189.551.189.256 0 .512-.098.707-.293.345-.345.367-.869.104-1.258.12-.293.189-.613.189-.949zm-4 3v-3c0-.276.225-.5.5-.5h1c.275 0 .5.224.5.5v2.155c-.383-.226-.878-.192-1.207.138s-.364.824-.138 1.207h-.155c-.275 0-.5-.224-.5-.5z"/><path d="m21 24h-3c-.553 0-1-.448-1-1v-6c0-.552.447-1 1-1s1 .448 1 1v5h2c.553 0 1 .448 1 1s-.447 1-1 1z"/><path d="m4.5 24h-1.5c-.553 0-1-.448-1-1s.447-1 1-1h1.5c.275 0 .5-.224.5-.5s-.225-.5-.5-.5c-1.379 0-2.5-1.122-2.5-2.5s1.121-2.5 2.5-2.5h1.5c.553 0 1 .448 1 1s-.447 1-1 1h-1.5c-.275 0-.5.224-.5.5s.225.5.5.5c1.379 0 2.5 1.122 2.5 2.5s-1.121 2.5-2.5 2.5z"/><path d="m19 10.5v3.68c-.31-.12-.65-.18-1-.18-.99 0-1.87.49-2.42 1.24-.8-.76-1.88-1.24-3.08-1.24h-1c-1.2 0-2.28.48-3.08 1.24-.55-.75-1.43-1.24-2.42-1.24h-1v-3.5c0 2.43 6.28 2.5 7 2.5s7-.07 7-2.5z"/><path d="m19 8.5c0 2.43-6.284 2.5-7 2.5s-7-.07-7-2.5v-4c0 2.43 6.284 2.5 7 2.5s7-.07 7-2.5z"/><path d="m12 0c-.72 0-7 .07-7 2.5s6.28 2.5 7 2.5 7-.07 7-2.5-6.28-2.5-7-2.5z"/></symbol><symbol id="css-3" viewBox="0 0 512 512"><title>css-3</title><path d="M32,0l40.8,460.8L256,512l183.136-51.168L480,0H32z M392.768,150.688l-5.152,57.888l-15.52,173.568L256,414.208 l-0.064,0.032l-116-32.128l-8.128-90.752h56.832l4.224,47.104l63.072,17.024l0.064-0.064l63.136-17.024l8.608-78.432 l-198.656,0.544l-5.632-53.664l209.056-2.432l4.224-57.44l-218.88,0.608l-3.68-53.376H256h141.824L392.768,150.688z"/></symbol><symbol id="html5" viewBox="0 0 299.215 299.215"><title>html5</title><path id="XMLID_107_" d="M22.347,0c-2.75,0-4.799,2.241-4.555,4.98l23.184,260.047c0.244,2.739,2.611,5.582,5.262,6.318 l98.381,27.316c2.65,0.736,6.986,0.736,9.637,0.002l98.68-27.361c2.65-0.735,5.02-3.578,5.264-6.316L281.422,4.98 c0.246-2.739-1.805-4.98-4.555-4.98H22.347z M232.049,59.641c-0.219,2.443-0.598,6.684-0.842,9.423l-0.611,6.823 c-0.246,2.738-0.596,6.654-0.781,8.701c-0.184,2.048-0.359,3.723-0.391,3.723c-0.031,0-2.307,0-5.057,0h-69.76 c-2.75,0-5.023,0-5.053,0s-2.305,0-5.055,0h-36.74c-2.75,0-4.799,2.241-4.555,4.98l2.143,23.955c0.244,2.738,2.695,4.98,5.445,4.98 H144.5c2.75,0,5.025,0,5.055,0s2.303,0,5.053,0h57.939c2.75,0,7.006,0,9.457,0c2.449,0,4.273,1.999,4.051,4.442 c-0.223,2.443-0.604,6.685-0.848,9.423l-6.891,77.228c-0.246,2.739-0.557,6.238-0.691,7.776c-0.137,1.537-2.416,3.396-5.066,4.131 l-58.133,16.119c-2.65,0.734-4.852,1.342-4.893,1.351c-0.041,0.009-2.242-0.586-4.893-1.321l-58.195-16.148 c-2.65-0.735-5.018-3.578-5.262-6.317l-3.746-42.045c-0.244-2.739,1.807-4.98,4.557-4.98h5.311c2.75,0,7.25,0,10,0h7.92 c2.75,0,5.199,2.241,5.445,4.98l1.469,16.459c0.244,2.739,2.615,5.566,5.271,6.283l27.221,7.351 c2.654,0.717,4.836,1.304,4.848,1.304s2.193-0.588,4.848-1.305l27.27-7.369c2.654-0.717,5.027-3.545,5.273-6.283l2.957-32.976 c0.246-2.739-1.803-4.98-4.553-4.98h-30.666c-2.75,0-5.023,0-5.053,0s-2.305,0-5.055,0H80.511c-2.75,0-5.199-2.242-5.443-4.98 l-7.256-81.306c-0.244-2.739-0.623-6.979-0.842-9.423c-0.217-2.443,1.854-4.442,4.604-4.442H144.5c2.75,0,5.025,0,5.055,0 s2.303,0,5.053,0h72.838C230.195,55.198,232.267,57.197,232.049,59.641z"/></symbol><symbol id="python-language-logotype" viewBox="0 0 17.056 17.056"><title>python-language-logotype</title><path style="fill:#030104;" d="M11.298,8.02c1.295-0.587,1.488-5.055,0.724-6.371c-0.998-1.718-5.742-1.373-7.24-0.145 C4.61,2.114,4.628,3.221,4.636,4.101h4.702v0.412H4.637c0,0.006-2.093,0.013-2.093,0.013c-3.609,0-3.534,7.838,1.228,7.838 c0,0,0.175-1.736,0.481-2.606C5.198,7.073,9.168,8.986,11.298,8.02z M6.375,3.465c-0.542,0-0.981-0.439-0.981-0.982 c0-0.542,0.439-0.982,0.981-0.982c0.543,0,0.982,0.44,0.982,0.982C7.358,3.025,6.918,3.465,6.375,3.465z"/><path style="fill:#030104;" d="M13.12,4.691c0,0-0.125,1.737-0.431,2.606c-0.945,2.684-4.914,0.772-7.045,1.738 C4.35,9.622,4.155,14.09,4.92,15.406c0.997,1.719,5.741,1.374,7.24,0.145c0.172-0.609,0.154-1.716,0.146-2.596H7.603v-0.412h4.701 c0-0.006,2.317-0.013,2.317-0.013C17.947,12.53,18.245,4.691,13.12,4.691z M10.398,13.42c0.542,0,0.982,0.439,0.982,0.982 c0,0.542-0.44,0.981-0.982,0.981s-0.981-0.439-0.981-0.981C9.417,13.859,9.856,13.42,10.398,13.42z"/></symbol><symbol id="bootstrap" viewBox="0 0 368 368"><title>bootstrap</title><path d="m344 0h-320c-13.230469 0-24 10.769531-24 24v320c0 13.230469 10.769531 24 24 24h320c13.230469 0 24-10.769531 24-24v-320c0-13.230469-10.769531-24-24-24zm8 344c0 4.414062-3.59375 8-8 8h-320c-4.40625 0-8-3.585938-8-8v-320c0-4.40625 3.59375-8 8-8h320c4.40625 0 8 3.59375 8 8zm0 0"/><path d="m216 64h-112c-4.414062 0-8 3.585938-8 8v224c0 4.425781 3.585938 8 8 8h112c30.878906 0 56-25.128906 56-56v-16c0-20.34375-10.902344-38.191406-27.175781-48 16.273437-9.808594 27.175781-27.65625 27.175781-48v-16c0-30.878906-25.121094-56-56-56zm40 168v16c0 22.054688-17.945312 40-40 40h-104v-96h104c22.054688 0 40 17.945312 40 40zm0-96c0 22.054688-17.945312 40-40 40h-104v-96h104c22.054688 0 40 17.945312 40 40zm0 0"/></symbol><symbol id="atom" viewBox="0 0 512 512"><title>atom</title><path d="m443.107 256c3.173-3.878 6.196-7.767 9.063-11.659 33.093-44.934 41.853-86.074 24.666-115.841-17.186-29.768-57.196-42.75-112.654-36.559-4.755.531-9.585 1.198-14.479 1.996-1.814-4.841-3.714-9.555-5.702-14.125-22.388-51.468-53.641-79.812-88.001-79.812s-65.613 28.344-88.001 79.811c-1.988 4.57-3.888 9.284-5.702 14.125-4.894-.798-9.723-1.465-14.479-1.996-55.468-6.192-95.468 6.792-112.654 36.56-17.187 29.768-8.427 70.907 24.666 115.841 2.866 3.892 5.89 7.78 9.063 11.659-3.173 3.878-6.196 7.767-9.063 11.659-33.093 44.934-41.852 86.073-24.666 115.841 21.006 36.385 70.904 41.22 112.654 36.56 4.755-.531 9.585-1.198 14.479-1.996 1.814 4.841 3.714 9.555 5.702 14.125 22.388 51.467 53.641 79.811 88.001 79.811s65.613-28.344 88.001-79.811c1.988-4.57 3.888-9.284 5.702-14.125 4.894.798 9.723 1.465 14.479 1.996 41.76 4.662 91.671-.214 112.654-36.559 17.187-29.768 8.427-70.907-24.666-115.841-2.866-3.893-5.89-7.782-9.063-11.66zm-75.596-134.244c27.777-3.101 69.485-2.26 83.345 21.744 10.702 18.538 2.377 48.809-22.841 83.051-1.677 2.277-3.419 4.554-5.215 6.829-14.927-15.267-32.017-30.177-50.801-44.333-2.853-23.336-7.198-45.605-12.927-66.203 2.84-.411 5.655-.778 8.439-1.088zm-66.511 212.186c-14.933 8.622-30.006 16.388-45 23.226-14.994-6.838-30.067-14.604-45-23.226-14.936-8.623-29.2-17.795-42.622-27.363-1.569-16.413-2.378-33.348-2.378-50.579s.809-34.166 2.378-50.579c13.421-9.568 27.686-18.74 42.622-27.363 14.933-8.622 30.006-16.388 45-23.226 14.994 6.838 30.067 14.604 45 23.226 14.936 8.623 29.2 17.795 42.622 27.363 1.569 16.413 2.378 33.348 2.378 50.579s-.809 34.166-2.378 50.579c-13.422 9.568-27.686 18.74-42.622 27.363zm37.11 12.534c-2.348 12.816-5.204 25.134-8.542 36.825-11.807-2.929-23.925-6.603-36.228-10.974 7.579-3.929 15.141-8.062 22.66-12.404 7.532-4.349 14.906-8.839 22.11-13.447zm-119.45 25.851c-12.303 4.371-24.421 8.045-36.228 10.974-3.338-11.691-6.194-24.009-8.542-36.825 7.204 4.608 14.577 9.098 22.11 13.447 7.519 4.341 15.081 8.475 22.66 12.404zm-82.073-90.502c-9.913-8.449-19.133-17.086-27.557-25.825 8.424-8.739 17.644-17.376 27.557-25.825-.386 8.53-.587 17.145-.587 25.825s.201 17.295.587 25.825zm37.303-116.301c2.348-12.816 5.204-25.134 8.542-36.825 11.807 2.929 23.925 6.603 36.228 10.974-7.579 3.929-15.141 8.062-22.66 12.404-7.532 4.349-14.906 8.839-22.11 13.447zm119.45-25.851c12.303-4.371 24.421-8.045 36.228-10.974 3.338 11.691 6.194 24.009 8.542 36.825-7.204-4.608-14.577-9.098-22.11-13.447-7.519-4.341-15.081-8.475-22.66-12.404zm82.073 90.502c9.913 8.449 19.133 17.086 27.557 25.825-8.424 8.739-17.644 17.376-27.557 25.825.386-8.53.587-17.145.587-25.825s-.201-17.295-.587-25.825zm-179.904-138.397c17.078-39.261 39.126-61.778 60.491-61.778s43.413 22.517 60.491 61.778c1.196 2.749 2.358 5.556 3.486 8.418-20.742 5.298-42.262 12.659-63.977 21.877-21.715-9.218-43.235-16.579-63.977-21.877 1.128-2.862 2.29-5.669 3.486-8.418zm-111.524 134.773c-25.218-34.243-33.543-64.514-22.841-83.052 13.86-24.006 55.413-24.863 83.345-21.744 2.783.311 5.598.677 8.438 1.09-5.729 20.598-10.074 42.867-12.927 66.203-18.784 14.155-35.874 29.066-50.801 44.333-1.795-2.276-3.536-4.552-5.214-6.83zm60.504 163.693c-42.267 4.719-72.642-3.207-83.345-21.744-10.702-18.538-2.377-48.809 22.841-83.051 1.677-2.277 3.419-4.554 5.215-6.829 14.927 15.267 32.017 30.177 50.801 44.333 2.853 23.336 7.198 45.605 12.927 66.203-2.84.411-5.655.778-8.439 1.088zm172.002 29.978c-17.078 39.261-39.126 61.778-60.491 61.778s-43.413-22.517-60.491-61.778c-1.196-2.749-2.358-5.556-3.486-8.418 20.742-5.298 42.262-12.659 63.977-21.877 21.715 9.218 43.235 16.579 63.977 21.877-1.128 2.862-2.29 5.669-3.486 8.418zm134.364-51.722c-10.702 18.538-41.08 26.463-83.345 21.744-2.783-.311-5.598-.677-8.438-1.09 5.729-20.598 10.074-42.867 12.927-66.203 18.784-14.155 35.874-29.066 50.801-44.333 1.796 2.275 3.537 4.552 5.215 6.829 25.217 34.244 33.543 64.515 22.84 83.053z"/><path d="m256 211c-24.813 0-45 20.187-45 45s20.187 45 45 45 45-20.187 45-45-20.187-45-45-45zm0 60c-8.271 0-15-6.729-15-15s6.729-15 15-15 15 6.729 15 15-6.729 15-15 15z"/></symbol></svg>